<?xml version="1.0" standalone="no"?>
<!DOCTYPE svg PUBLIC "-//W3C//DTD SVG 20010904//EN"
 "http://www.w3.org/TR/2001/REC-SVG-20010904/DTD/svg10.dtd">
<svg version="1.0" xmlns="http://www.w3.org/2000/svg"
 width="274.000000pt" height="235.000000pt" viewBox="0 0 274.000000 235.000000"
 preserveAspectRatio="xMidYMid meet">

<g transform="translate(0.000000,235.000000) scale(0.100000,-0.100000)"
fill="#000000" stroke="none">
<path d="M1338 1902 c-41 -26 -164 -99 -504 -302 -191 -113 -309 -190 -307
-197 3 -7 8 -13 13 -13 4 0 69 -36 143 -79 75 -44 142 -81 149 -82 7 -2 65 31
128 72 134 88 338 209 351 209 5 0 9 -12 9 -28 0 -22 -8 -32 -45 -52 -25 -14
-45 -28 -45 -31 0 -8 85 22 96 34 4 4 27 7 51 7 25 0 53 5 65 11 23 13 31 8
22 -15 -6 -15 -74 -51 -259 -136 -172 -79 -273 -131 -290 -150 -11 -12 -22
-46 -27 -82 -7 -55 -6 -68 13 -103 21 -40 21 -42 4 -78 -16 -34 -20 -37 -61
-37 -42 0 -44 -1 -44 -30 0 -29 2 -30 44 -30 32 0 49 -5 58 -18 31 -43 218
-138 329 -168 85 -22 233 -22 319 0 90 24 213 84 286 139 73 55 74 60 74 282
l0 143 158 92 c174 103 192 116 192 139 0 10 -54 48 -138 97 -137 81 -628 374
-680 406 -15 9 -38 17 -52 17 -14 0 -37 -8 -52 -17z m-231 -835 c59 -35 147
-86 195 -113 58 -32 88 -55 88 -66 0 -23 -17 -22 -62 5 -20 12 -106 64 -192
115 -88 52 -156 99 -156 107 0 8 4 15 9 15 5 0 58 -28 118 -63z"/>
</g>
</svg>
